<?xml version="1.0" encoding="utf-8"?>
<!-- Generator: Adobe Illustrator 26.0.1, SVG Export Plug-In . SVG Version: 6.00 Build 0)  -->
<svg version="1.1" id="Layer_1" xmlns="http://www.w3.org/2000/svg" xmlns:xlink="http://www.w3.org/1999/xlink" x="0px" y="0px"
	 viewBox="0 0 1538.3 400" style="enable-background:new 0 0 1538.3 400;" xml:space="preserve">
<style type="text/css">
	.st0{fill:#141521;}
</style>
<g>
	<g>
		<path class="st0" d="M341.4,58.6c-78-78.2-204.7-78.2-282.7,0c-78.2,78.2-78.2,204.7,0,282.7c78.2,78.2,204.7,78.2,282.7,0
			C419.5,263.4,419.5,136.7,341.4,58.6z M324.2,324.2c-68.6,68.6-180,68.6-248.5,0s-68.6-180,0-248.5s180-68.6,248.5,0
			C393,144.4,393,255.7,324.2,324.2z"/>
		<path class="st0" d="M308,316.6V83.4c-10.2-9.6-21.6-18-33.8-24.6v222.9L127,58c-12.8,6.8-24.6,15.2-35,25.2v233.3
			c10.2,9.6,21.6,18,33.8,24.6V118.2L273,342C285.8,335.2,297.6,326.6,308,316.6z"/>
	</g>
	<g>
		<g>
			<polygon class="st0" points="708.8,58.2 708.1,58.2 708.1,59 708.1,305 618.6,58.7 618.4,58.2 617.9,58.2 559,58.2 493.1,58.2 
				492.4,58.2 492.4,59 492.4,341 492.4,341.8 493.1,341.8 559,341.8 559.8,341.8 559.8,341 559.8,94.7 649.6,341.3 649.8,341.8 
				650.3,341.8 708.8,341.8 774.7,341.8 775.5,341.8 775.5,341 775.5,59 775.5,58.2 774.7,58.2 			"/>
			<polygon class="st0" points="1537.5,58.2 1411.7,58.2 1411.1,58.2 1411,58.8 1349.3,306.1 1287.6,58.8 1287.5,58.2 1286.9,58.2 
				1160.7,58.2 1160,58.2 1160,59 1160,341 1160,341.8 1160.7,341.8 1226.6,341.8 1227.4,341.8 1227.4,341 1227.4,96.5 
				1288.3,341.2 1288.4,341.8 1289,341.8 1409.2,341.8 1409.8,341.8 1410,341.2 1470.9,96.5 1470.9,341 1470.9,341.8 1471.6,341.8 
				1537.5,341.8 1538.3,341.8 1538.3,341 1538.3,59 1538.3,58.2 			"/>
			<polygon class="st0" points="1048.6,58.2 1048.2,58.2 1048,58.6 967.9,197.8 887.5,58.6 887.3,58.2 886.8,58.2 810.7,58.2 
				809.4,58.2 810,59.4 934,274.2 934,341 934,341.8 934.8,341.8 1000.7,341.8 1001.4,341.8 1001.4,341 1001.4,274.2 1125.4,59.4 
				1126.1,58.2 1124.8,58.2 			"/>
		</g>
	</g>
</g>
</svg>
